<svg width="24" height="24" viewBox="0 0 24 24" fill="none" xmlns="http://www.w3.org/2000/svg">
<path id="Vector" d="M17 18L15.465 19.605C14.891 20.1567 14.1935 20.5633 13.4306 20.7911C12.6677 21.0188 11.8614 21.0611 11.0789 20.9144C10.2964 20.7676 9.56017 20.4362 8.93159 19.9475C8.30301 19.4589 7.80021 18.8272 7.46503 18.105" stroke="black" stroke-width="1.5" stroke-linecap="round" stroke-linejoin="round"/>
<path id="Vector_2" d="M17 22V18H13" stroke="black" stroke-width="1.5" stroke-linecap="round" stroke-linejoin="round"/>
<path id="Vector_3" d="M20.996 15.251C21.5072 14.5894 21.824 13.7984 21.9108 12.9669C21.9976 12.1353 21.851 11.2959 21.4875 10.543C21.1239 9.79007 20.5578 9.1533 19.8526 8.70413C19.1474 8.25495 18.331 8.01113 17.495 8H15.705C15.4205 7.04874 14.9369 6.16887 14.2863 5.41882C13.6358 4.66877 12.8331 4.06571 11.9315 3.64967C11.03 3.23364 10.0503 3.01414 9.05744 3.00577C8.06458 2.9974 7.08131 3.20034 6.1729 3.60112C5.26448 4.00189 4.45173 4.59133 3.78859 5.3303C3.12545 6.06927 2.6271 6.94086 2.32663 7.8872C2.02616 8.83353 1.93045 9.83296 2.04586 10.8191C2.16126 11.8053 2.48513 12.7556 2.99597 13.607" stroke="black" stroke-width="1.5" stroke-linecap="round" stroke-linejoin="round"/>
<path id="Vector_4" d="M7 10V14H11" stroke="black" stroke-width="1.5" stroke-linecap="round" stroke-linejoin="round"/>
<path id="Vector_5" d="M7 14L8.535 12.395C9.10904 11.8433 9.80653 11.4367 10.5694 11.2089C11.3323 10.9812 12.1386 10.9389 12.9211 11.0856C13.7037 11.2324 14.4399 11.5638 15.0684 12.0525C15.697 12.5411 16.1998 13.1728 16.535 13.895" stroke="black" stroke-width="1.5" stroke-linecap="round" stroke-linejoin="round"/>
</svg>