<svg width="2000" height="1311" viewBox="0 0 2000 1311" fill="none" xmlns="http://www.w3.org/2000/svg">
<g clip-path="url(#clip0_836_21)">
<path d="M-829 584.284C-682.569 570.973 -502.602 875.402 -376.448 843.863C-218.756 804.44 -210.269 513.041 -5.26762 513.041C199.734 513.041 319.882 742.794 436.866 843.863C593.091 978.836 888.184 914.362 1029.53 653.986C1133.86 461.796 1096.56 174 930.379 174C764.195 174 688.582 423.681 793.711 683.875C898.84 944.069 1131.13 1192.35 1400.83 1091.25C1773.46 951.559 1698.21 310.424 2110.45 284.385C2431.74 264.092 2628.21 608.533 2683.4 736.44" stroke="white" stroke-width="200"/>
</g>
<defs>
<clipPath id="clip0_836_21">
<rect width="2000" height="1311" fill="white"/>
</clipPath>
</defs>
</svg>
